<mxfile host="app.diagrams.net" modified="2023-08-10T08:44:18.688Z" agent="Mozilla/5.0 (X11; Linux x86_64) AppleWebKit/537.36 (KHTML, like Gecko) Chrome/115.0.0.0 Safari/537.36" version="21.6.7" etag="NJyAOe7L6FWQxVd6bIjI" type="github">
  <diagram name="Page-1" id="KreMHv0Rd1rP75zs0gZa">
    <mxGraphModel>
      <root>
        <mxCell id="0" />
        <mxCell id="1" parent="0" />
      </root>
    </mxGraphModel>
  </diagram>
</mxfile>
